<?xml version="1.0" standalone="no"?><svg xmlns="http://www.w3.org/2000/svg" viewBox="0 0 1440 320"><path fill="#333EBF " fill-opacity="1" d="M0,128L0,320L130.9,320L130.9,160L261.8,160L261.8,288L392.7,288L392.7,224L523.6,224L523.6,128L654.5,128L654.5,288L785.5,288L785.5,0L916.4,0L916.4,224L1047.3,224L1047.3,160L1178.2,160L1178.2,128L1309.1,128L1309.1,256L1440,256L1440,320L1309.1,320L1309.1,320L1178.2,320L1178.2,320L1047.3,320L1047.3,320L916.4,320L916.4,320L785.5,320L785.5,320L654.5,320L654.5,320L523.6,320L523.6,320L392.7,320L392.7,320L261.8,320L261.8,320L130.9,320L130.9,320L0,320L0,320Z"></path></svg>